<svg xmlns="http://www.w3.org/2000/svg" width="24" height="24" viewBox="0 0 24 24"><path d="M 22.427314,6.005593 C 20.340355,2.4210609 16.465147,-1.1045173e-7 12.022591,-1.1045173e-7 11.084362,-1.1045173e-7 10.12408,0.10813661 9.1477605,0.33442271 11.848177,8.0101274 8.3799361,13.182667 2.4511645e-5,11.973138 -0.01200406,18.034802 4.40449,22.922982 10.063937,23.858165 21.887966,25.418079 26.789735,13.762771 22.427314,6.005593 Z M 10.837776,19.935205 C 8.261655,19.550719 6.0584199,17.938681 4.895657,15.679825 10.741548,15.441523 15.045775,9.9806188 13.81886,4.2073194 16.342857,4.7880536 18.39373,6.570307 19.388093,8.9052592 22.288642,15.570701 16.362798,20.660694 10.837776,19.935205 Z"/></svg>