<svg xmlns="http://www.w3.org/2000/svg" width="24" height="24" viewBox="0 0 24 24"><path d="M 22.427314,6.005593 C 20.340355,2.4210609 16.465147,-1.1045173e-7 12.022591,-1.1045173e-7 11.084362,-1.1045173e-7 10.12408,0.10813661 9.1477605,0.33442271 11.848177,8.0101274 8.3799361,13.182667 2.4511645e-5,11.973138 -0.01200406,18.034802 4.40449,22.922982 10.063937,23.858165 21.887966,25.418079 26.789735,13.762771 22.427314,6.005593 Z M 9.4394709,21.33351 C 5.0836889,20.262583 3.2872335,16.438681 2.1244706,14.179825 12.90001,14.732523 12.918158,6.6007597 11.632419,1.7666415 15.758111,2.0931384 19.080171,4.3838663 20.481313,7.4815304 24.881862,18.240193 14.456018,23.228491 9.4394709,21.33351 Z"/></svg>