<svg xmlns="http://www.w3.org/2000/svg" width="512" height="512" viewBox="0 0 512 512"><path d="M363.3 71c0-7.7-6.3-14-14-14-7.8 0-14 6.3-14 14v31c0 8 6.2 14 14 14 7.7 0 14-6 14-14V71zM253.8 104.6c-5.4-5.5-14.3-5.5-19.8 0-5.4 5.4-5.4 14.3 0 19.8l22 22c5.5 5.4 14.4 5.4 20 0 5.4-5.5 5.4-14.4 0-19.8l-22.2-22zM444.4 334.8c5.4 5.5 14.3 5.5 19.8 0s5.5-14.3 0-19.8l-22-22c-5.5-5.5-14.4-5.5-20 0-5.3 5.5-5.3 14.3 0 19.8l22.2 22zM498 233.8c7.7 0 14-6.3 14-14s-6.3-14-14-14h-31.2c-7.7 0-14 6.3-14 14s6.3 14 14 14H498zM464.4 124.5c5.4-5.4 5.5-14.3 0-19.8-5.5-5.4-14.4-5.4-20 0l-22 22c-5.4 5.5-5.4 14.4 0 19.8 5.6 5.5 14.5 5.5 20 0l22-22z"/><path d="M436.4 220c0-48-39-87-87.2-87-28.4 0-53.7 13.5-69.6 34.6-18-6.4-35-6-43-3.8-19-18.8-50.4-32.6-82.3-32.6C91 131.2 39.3 180 34.7 242 14 253.7 0 276 0 301.7c0 38 31 69 69 69h9.5c6.4 0 11.6-6.4 11.6-13.2 0-7.3-6-13.2-13.2-13.2H75c-25.7 0-44.8-18.6-44.8-42.8 0-19.7 12.6-37 32.2-43 2.3-93 84.3-98 93.4-98 27 0 54 13.4 71.2 33 35-11.5 83 15.5 77.6 67.5 13.6-5.4 27.3-5 31.2-5 19.5 0 43.2 17 43.2 45.2 0 24-19.4 43.2-43.2 43.2h-2c-7.2 0-13.2 6-13.2 13.3 0 7.3 6 13.2 13.3 13.2h1.7c39.3 0 71-32 71-71 0 0 0-5.5-1.4-13.3 19-16 31-40 31-66.7zm-42.2 38.6c-10-15.6-28.5-29.7-61.8-29.7-5.4-22.3-16-37.4-28.2-47.6 11-12.7 27-20.7 45-20.7 32.8 0 59.4 26.5 59.4 59.3 0 14.7-5.4 28.2-14.4 38.6zM442 293.3c-5.4-5.4-14.3-5.4-19.8 0-5.5 5.5-5.5 14.4 0 20l22 22c5.5 5.4 14.4 5.4 20 0 5.4-5.6 5.4-14.5 0-20l-22-22zM498 206h-31.2c-7.8 0-14 6.3-14 14 0 7.8 6.2 14 14 14h31c8 0 14.2-6.2 14.2-14 0-7.7-6.3-14-14-14z"/><path d="M152 350.8c3.8-6.7 1.5-15.3-5.2-19-6.7-4-15.3-1.7-19.2 5l-15.6 27c-3.8 6.7-1.5 15.3 5.2 19 6.7 4 15.3 1.7 19.2-5l15.6-27zM224.8 350.8c3.8-6.7 1.5-15.3-5.2-19-6.7-4-15.3-1.7-19.2 5l-15.6 27c-3.8 6.7-1.5 15.3 5.2 19 6.7 4 15.3 1.7 19.2-5l15.6-27zM160.3 421c4-6.7 1.6-15.3-5-19.2-6.8-3.8-15.4-1.5-19.3 5.2l-15.6 27c-4 6.7-1.6 15.2 5 19 6.8 4 15.4 1.7 19.3-5l15.6-27zM297.5 350.8c4-6.7 1.6-15.3-5-19-6.8-4-15.4-1.7-19.3 5l-15.6 27c-4 6.7-1.6 15.3 5.2 19 6.7 4 15.3 1.7 19-5l15.7-27zM233 421c4-6.7 1.7-15.3-5-19.2-6.8-3.8-15.4-1.5-19.2 5.2l-15.6 27c-4 6.7-1.6 15.2 5 19 6.8 4 15.4 1.7 19.3-5l15.6-27z"/></svg>