<svg xmlns="http://www.w3.org/2000/svg" width="512" height="512" viewBox="0 0 512 512"><path d="M286.3 159c-14.2-3-26.7-2.3-33.3-.5-20.2-20.2-54-35-88-35-67.6 0-123 52.2-128 118.5-22 12.8-37 36.6-37 64 0 40.8 33 74 74 74h10c7 0 12.4-7 12.4-14.2 0-7.8-6.4-14.2-14.2-14.2h-2c-27.5 0-48-20-48-45.8 0-21 13.6-39.6 34.5-46C69.2 160.3 157 155 166.7 155c29 0 57.6 14.3 76 35.3 37.5-12.3 88.7 16.5 83 72.2 14.6-6 29.2-5.5 33.4-5.5 21 0 46.3 18.3 46.3 48.4 0 25.5-20.7 46.2-46.2 46.2h-2c-7.8 0-14.2 6.4-14.2 14.2 0 7.8 6.4 14 14.2 14h2c42 0 76-34 76-76 0 0 0-9.6-3.5-22.2 28-5.2 52.8-20 71-41.2 23.7-27-3.3-26.5-12.5-28-54.2-6.6-127.4-63-100.5-152.3 6-19-5.2-19.3-13.4-17 0 0-84.4 18.8-89.7 116zm71.3-77.4c-12.5 64.4 39 144 111.3 151.6-14 10.6-32.3 19-51.2 21.4-11.4-14.5-30.5-26.5-62.3-26.5-7.2-29.6-23-47.5-40.3-58-4.3-50 27-79 42.4-88.4z"/><path d="M162.5 358.5c4.2-7 1.7-16.3-5.5-20.5-7.2-4-16.3-1.7-20.5 5.5l-16.7 29c-4 7-1.7 16.3 5.5 20.4 7.2 4 16.4 1.6 20.5-5.6l16.7-29zM240.4 358.5c4-7 1.7-16.3-5.6-20.5-7-4-16.3-1.7-20.5 5.5l-16.6 29c-4.2 7-1.7 16.3 5.5 20.4 7 4 16.3 1.6 20.5-5.6l16.7-29zM171.5 433.6c4-7.2 1.6-16.3-5.5-20.5-7.2-4-16.4-1.6-20.6 5.6l-16.6 29c-4.2 7-1.7 16.3 5.5 20.4 7 4 16.3 1.7 20.5-5.5l16.7-29zM318.2 358.5c4-7 1.7-16.3-5.5-20.5-7.2-4-16.4-1.7-20.5 5.5l-16.7 29c-4 7-1.7 16.3 5.5 20.4 7.2 4 16.4 1.6 20.5-5.6l16.7-29zM249.3 433.6c4-7.2 1.7-16.3-5.5-20.5-7.2-4-16.4-1.6-20.5 5.6l-16.7 29c-4.2 7-1.7 16.3 5.5 20.4 7.3 4 16.5 1.7 20.6-5.5l16.7-29z"/></svg>