<svg xmlns="http://www.w3.org/2000/svg" width="166.5" height="24" viewBox="0 0 166.5 24" shape-rendering="crispEdges"><g transform="translate(0 -1028.362)"><path opacity=".3" fill="none" d="M9.8 1036h7.5v8.2H9.8zM0 1043.4h4.5v7.5H0z"/><path opacity=".3" fill="none" d="M6 1040.4h6v10.5H6z"/><rect width="4.5" height="7.5" y="1043.4" ry="0" opacity=".3" fill="#333"/><path opacity=".3" fill="#333" d="M6 1039h4.5v12H6zM12 1034.4h4.5v16.5H12zM18 1030h4.5v21H18z"/><path fill="#333" d="M24 1043.4h4.5v7.5H24z"/><path opacity=".3" fill="#333" d="M30 1039h4.5v12H30zM36 1034.4h4.5v16.5H36zM42 1030h4.5v21H42zM60 1034.4h4.5v16.5H60zM66 1030h4.5v21H66z"/><path fill="#333" d="M48 1043.4h4.5v7.5H48zM54 1039h4.5v12H54zM72 1043.4h4.5v7.5H72zM78 1039h4.5v12H78zM84 1034.4h4.5v16.5H84z"/><path opacity=".3" fill="#333" d="M90 1030h4.5v21H90z"/><path fill="#333" d="M96 1043.4h4.5v7.5H96zM102 1039h4.5v12H102zM108 1034.4h4.5v16.5H108zM114 1030h4.5v21H114z"/><path opacity=".3" fill="#333" d="M120 1043.4h4.5v7.5H120zM126 1039h4.5v12H126zM132 1034.4h4.5v16.5H132zM138 1030h4.5v21H138z"/><text style="line-height:125%" x="122.4" y="1048.3" font-size="30" font-family="sans-serif" letter-spacing="0" word-spacing="0" fill="#f44336"><tspan x="122.4" y="1048.3" style="-inkscape-font-specification:Arial" font-family="Arial">×</tspan></text><path d="M144 1051v-21h7.6v4.4H147v16.5z" fill="none"/><path d="M144 1052.4V1033h6v-4.6h10.5v4.5h6v19.4h-3v-6H162v6h-1.5v-6H159v6h-1.5v-6H156v6h-1.5v-6H153v6h-1.5v-6H150v6h-1.5v-6H147v6z" fill="#333" fill-rule="evenodd"/></g></svg>