<svg xmlns="http://www.w3.org/2000/svg" xmlns:xlink="http://www.w3.org/1999/xlink" width="42" height="42" viewBox="0 0 42 42" fill="#FFA000"><defs><g id="gear"><path id="gear" d="M24 13.616v-3.232c-1.65-.587-2.694-.752-3.22-2.02-.526-1.27.1-2.134.848-3.707l-2.285-2.285c-1.56.742-2.433 1.375-3.707.847-1.27-.527-1.436-1.577-2.02-3.22h-3.232c-.582 1.635-.75 2.692-2.02 3.22-1.27.527-2.132-.1-3.707-.848L2.372 4.657c.745 1.568 1.375 2.434.847 3.707-.528 1.27-1.585 1.438-3.22 2.02v3.232c1.632.58 2.692.75 3.22 2.02.53 1.28-.115 2.165-.848 3.706l2.285 2.286c1.562-.743 2.434-1.375 3.707-.847 1.27.527 1.437 1.58 2.02 3.22h3.232c.582-1.636.75-2.69 2.027-3.222 1.263-.524 2.12.1 3.7.85l2.284-2.285c-.744-1.563-1.375-2.433-.848-3.706.526-1.27 1.587-1.44 3.22-2.02zM12 16a4 4 0 1 1 0-8 4 4 0 0 1 0 8z"></path></g></defs><use xlink:href="#gear" x="1" y="1"><animateTransform attributeName="transform" type="rotate" from="0 13 13" to="90 13 13" dur="1s" repeatCount="indefinite"></animateTransform></use><use xlink:href="#gear" x="17" y="17"><animateTransform attributeName="transform" type="rotate" from="22.5 29 29" to="-67.5 29 29" dur="1s" repeatCount="indefinite"></animateTransform></use></svg>