<svg xmlns="http://www.w3.org/2000/svg" width="512" height="512" viewBox="0 0 512 512" fill="#CCC"><path d="M512 290.5v-69l-37.3-13.2c-14.2-5-25.6-16-31.4-30-5.8-13.8-5.4-29.6 1-43.2l17-35.6-48.7-48.8-35.6 17c-13.7 6.5-29.5 7-43.4 1-14-5.7-24.8-17-30-31.3L290.7 0h-69l-13.3 37.3c-5 14.2-16 25.6-30 31.4-13.8 5.8-29.6 5.4-43.2-1l-35.6-17-48.8 48.7 17 35.6c6.5 13.7 7 29.5 1 43.4-5.7 14-17 24.8-31.3 30L0 221.3v69l37.3 13.3c14.2 5 25.6 16 31.4 29.8 5.8 14 5.4 29.8-1 43.4l-17 35.6 48.7 48.8 35.6-17c13.7-6.5 29.5-7 43.4-1 14 5.7 24.8 17 30 31.3l13 37.3h69l13.2-37c5-14.4 16-26 30-31.7h.2c13.8-5.8 29.4-5.4 43 1l35.8 17 48.8-48.7-17-35.7c-6.5-13.7-7-29.5-1-43.4 5.7-14 17-24.8 31.4-30l37.2-13zM256 350c-52 0-94-42.2-94-94s42-94 94-94c51.8 0 94 42.2 94 94s-42.2 94-94 94z"/></svg>