<svg xmlns="http://www.w3.org/2000/svg" viewBox="0 0 2000 512" height="512" width="2000" fill="#FFF"><path d="M108.5 0c-2.6 0-5.3 1-8.5 3.5-7.8-3-15.3-4-22 2C67.6 4.3 64.3 7 61.7 10.4c-2.3 0-17-2.4-23.8 7.7-17-2-22.5 10-16.4 21.2-3.5 5.4-7 10.7 1 21-2.8 5.7-1 12 5.7 19.4-1.7 8 1.8 13.7 8 18-1 11 10 17.5 13.5 19.7 1.3 6.4 4 12.5 16.8 15.8 2.2 9.7 10 11.3 17.4 13.3-24.8 14.4-46 33.3-45.8 79.7l-3.6 6.5c-28.4 17.2-54 72.6-14 117.6 2.6 14.2 7 24.4 10.8 35.6 6 45 43.8 66.3 54 68.8 14.5 11.2 30.2 21.8 51.3 29.2 20 20.6 41.6 28.4 63.3 28.4h1c21.7 0 43.3-7.8 63.2-28.4 21.2-7.4 36.8-18 51.5-29.2 10-2.5 48-23.7 53.8-68.8 4-11.2 8.2-21.4 10.8-35.5 40-45 14.4-100.3-14-117.5l-3.6-6.5c.2-46.4-21-65.3-45.7-79.7 7.4-2 15.2-3.6 17.3-13.2 12.8-3.2 15.5-9.3 16.8-15.7 3.5-2.2 14.7-8.6 13.6-19.6 6.3-4.4 9.8-10 8-18 6.8-7.6 8.5-13.8 5.7-19.5 8-10.3 4.5-15.6 1-21C385.3 28 380 16 363 18c-6.8-10-21.5-7.8-23.8-7.7-2.5-3.3-6-6-16.3-4.7-6.8-6-14.3-5-22-2-9.3-7.3-15.4-1.5-22.3.7-11-3.6-13.7 1.3-19.2 3.4-12-2.6-15.8 3-21.6 9l-7-.2c-18.2 10.8-27.3 32.7-30.5 44-3.3-11.3-12.4-33.2-30.7-44H163c-5.8-5.8-9.5-11.4-21.6-8.8-5.5-2-8-7-19.2-3.4C117.7 3 113.5 0 108.5 0zm.7 13c9.3 3.4 14 8 19 12.3 1.8-2.3 4.5-4 1.3-9.6C136 19.5 141 24 144.7 29c4-2.6 2.5-6.2 2.5-9.4 7 5.6 11.2 11.5 16.6 17.3 1-1 2-3.5 2.8-7.7 16.4 16 39.5 56 6 71.7C144 77.5 109.8 60.4 72 47.5c48.7 25 77 45.3 92.4 62.6-8 32-49.3 33.3-64.4 32.4 3-1.4 5.7-3 6.6-5.8-3.8-2.7-17.3-.3-26.7-5.5 3.6-.7 5.2-1.4 7-4-9-3-18.5-5.4-24-10 3 0 5.7.6 9.7-2-8-4.4-16.4-7.8-23-14.3 4 0 8.5 0 9.8-1.6C52.2 94.7 46 89.7 41 84c5.8.8 8.2.2 9.6-.8C45 77.6 38 72.8 34.8 66c4.3 1.3 8.2 2 11-.3-2-4.2-10-6.7-14.5-16.5 4.5.4 9.3 1 10.2 0-2-8.5-5.6-13.3-9-18.2 9.5-.2 24 0 23.4-.8l-6-6c9.3-2.6 19 .3 26 2.5 3-2.5 0-5.6-4-8.8 8 1 15.3 2.8 21.8 5.3 3.5-3-2.3-6.3-5-9.4 12.3 2.2 17.5 5.5 22.7 8.8 3.8-3.6.2-6.7-2.3-9.8zm183.6 0c-2.5 3-6 6.2-2.3 9.8 5.2-3.3 10.4-6.6 22.8-9-2.8 3.2-8.5 6.4-5 9.5C314.7 20.8 322 19 330 18c-4 3-7 6.2-4 8.7 7-2.2 16.7-5 26-2.6l-6 6.2c-.5.8 14 .6 23.7.8-3.5 5-7 9.7-9.2 18.2 1 1 5.7.4 10.2 0C366 59 358 61.5 356.2 65.7c2.8 2.2 6.7 1.6 11 .2C364 72.7 357 77.5 351.4 83c1.4 1 4 1.6 9.6 1-5 5.4-11.2 10.4-18.5 15 1.3 1.4 5.7 1.4 9.8 1.5-6.6 6.5-15 10-23 14.2 4 2.6 6.8 2 9.8 2-5.5 4.6-15 7-24 10 1.8 2.6 3.5 3.3 7 4-9.3 5.3-22.8 3-26.6 5.6 1 2.7 3.5 4.4 6.6 5.8-15 1-56.5-.5-64.4-32.3C253 93 281.4 72.7 330 47.6c-37.8 13-72 30-100.5 53.5-33.6-15.8-10.5-55.8 6-71.7.8 4.2 1.7 6.8 2.8 7.6 5.3-6 9.7-11.8 16.5-17.4 0 3.2-1.6 6.8 2.5 9.4 3.7-5 8.6-9.5 15.2-13.3-3 5.6-.5 7.3 1.2 9.6 5-4.4 9.8-9 19-12.3zm-95 131c.8-.2 1.6-.2 2.5 0 23.8-.4 53.2 17.6 53 34.6 0 15-20.6 27-52.8 27-31.7-.5-53-15.3-53-30 .2-11.5 24.4-31.2 50.3-31.7zm-76.5 10c4.7 0 9.5.4 14.4 1.2 16.6 2.8-79.4 86.6-80.8 68-1.5-43.5 28-69.4 66.3-69.2zm153 1.4c38.3-.2 67.8 25.7 66.4 69-1.4 18.8-97.4-65-80.8-67.7 4.8-1 9.6-1.3 14.3-1.3zm-13.8 52A61.6 52.2 56 0 1 301 317.6a61.6 52.2 56 0 1-68-102.8 61.6 52.2 56 0 1 27.5-7.4zm-120 3a52.2 61.6 34 0 1 27.5 7.3 52.2 61.6 34 0 1-68 102.8 52.2 61.6 34 0 1 40.6-110.2zm205.6 31.4c.8 0 1.6 0 2.4.3 43.2 24.8 35.7 79.7 12.4 98.4-20.5 9.2-37.4-98.2-14.7-98.6zm-296.3 1.4c22.7.4 5.8 107.8-14.7 98.7-23.3-19-30.8-73.8 12.4-98.5l2.3-.3zm153.7 74.2A58.2 53.7 0 0 1 260 371a58.2 53.7 0 0 1-116.6 0 58.2 53.7 0 0 1 60-53.6zm127 20c4.5-.2 8.7 1 12.6 4 10.3 10.4 16.4 49.2-1.7 72.4-25 34.6-58.7 36-71.2 26.3-13-12.3-3-50.8 15-72 15.4-17.4 31.7-30.3 45.3-30.6zM67 345.6c15-.3 33.4 11.5 48.3 29 16.7 20 24.3 55.2 10.4 65.6-13.3 8-45.2 4.6-68-28C43 385 45 357 55.6 348.8c3.5-2 7.5-3 11.7-3.2zm139.2 96c22.7.2 50.3 8.4 50.3 19 .4 11-28.4 36-56.3 35.4-29 1.3-57.3-23.7-57-32.3-.4-12.7 35.3-22.6 58.5-22h4.4z"/><text y="920.1" x="499.3" style="line-height:125%" font-size="55.3" font-family="sans-serif" letter-spacing="0" word-spacing="0" transform="translate(0 -540.362)"><tspan y="920.1" x="499.3"><tspan style="-inkscape-font-specification:Arial" y="920.1" x="499.3" font-size="345.8" font-family="Arial">Pi Control</tspan></tspan></text></svg>