<svg xmlns="http://www.w3.org/2000/svg" width="94" height="24" viewBox="0 0 94 24" fill="#FFF"><path d="M5.087 0c-.12 0-.252.05-.4.166-.363-.14-.715-.188-1.03.096C3.17.2 3.013.33 2.893.482c-.107 0-.8-.11-1.116.363-.797-.094-1.05.47-.764.994-.163.25-.332.5.05.98-.135.27-.052.56.265.91-.083.377.08.643.377.85-.056.515.472.814.63.92.06.3.186.584.788.74.1.448.462.525.813.62-1.16.672-2.153 1.56-2.146 3.733l-.17.303c-1.33.808-2.525 3.406-.655 5.517.122.66.327 1.136.51 1.66.272 2.118 2.052 3.11 2.52 3.226.69.524 1.422 1.02 2.414 1.37.933.963 1.946 1.33 2.964 1.33h.045c1.017 0 2.03-.367 2.965-1.33.99-.35 1.724-.846 2.412-1.37.47-.118 2.25-1.11 2.522-3.226.18-.525.386-1 .508-1.66 1.87-2.112.674-4.71-.655-5.518l-.17-.303c.007-2.174-.986-3.06-2.145-3.734.35-.095.712-.172.812-.62.602-.156.728-.44.79-.74.156-.106.684-.405.63-.92.294-.207.458-.473.375-.85.317-.35.4-.64.266-.91.382-.48.213-.73.05-.98.286-.526.034-1.09-.764-.995C16.7.372 16.006.48 15.9.48c-.12-.15-.278-.28-.764-.218-.315-.285-.667-.236-1.03-.096-.43-.34-.716-.067-1.042.036-.523-.17-.642.063-.898.158-.57-.12-.743.142-1.016.42l-.317-.01c-.86.505-1.286 1.535-1.437 2.065-.15-.53-.577-1.56-1.436-2.066l-.317.01C7.37.5 7.197.24 6.628.36 6.37.265 6.252.032 5.73.202c-.214-.068-.41-.208-.643-.2zm.03.61c.437.16.66.37.898.574.08-.108.203-.187.054-.448.31.178.542.39.715.624.19-.122.114-.29.115-.442.322.262.526.54.776.812.05-.037.094-.16.133-.358.767.745 1.852 2.62.278 3.365C6.75 3.632 5.15 2.83 3.378 2.227 5.656 3.402 6.98 4.352 7.706 5.16c-.37 1.49-2.31 1.56-3.02 1.517.146-.068.267-.148.31-.273-.178-.126-.808-.013-1.25-.26.17-.035.25-.07.33-.194-.417-.133-.865-.247-1.13-.467.143 0 .276.032.462-.097-.373-.2-.77-.36-1.08-.667.194 0 .4 0 .462-.074-.34-.21-.63-.446-.867-.703.27.033.383 0 .448-.042-.256-.263-.583-.486-.738-.812.2.07.383.095.515-.01-.088-.197-.463-.314-.68-.776.212.02.435.046.48 0-.098-.398-.266-.622-.43-.855.45-.01 1.134 0 1.103-.036l-.28-.283c.442-.12.892.02 1.22.12.146-.115-.003-.262-.182-.41.374.05.712.135 1.018.253C4.56.943 4.29.795 4.16.648c.578.11.823.264 1.067.418.176-.17.01-.313-.11-.46zm8.61 0c-.12.146-.286.29-.11.46.245-.155.49-.31 1.068-.42-.13.15-.4.296-.236.444.304-.12.643-.205 1.017-.255-.18.15-.33.295-.182.41.327-.1.778-.24 1.22-.12l-.28.285c-.03.038.652.03 1.103.036-.164.233-.332.457-.43.856.044.046.268.02.48 0-.217.46-.593.578-.68.776.132.1.315.075.515.01-.156.325-.482.548-.74.812.066.047.18.075.45.042-.24.257-.527.492-.868.703.06.07.268.067.46.072-.308.307-.706.466-1.078.667.186.128.318.098.46.096-.263.22-.71.334-1.127.467.08.125.158.16.327.194-.44.247-1.07.134-1.25.26.044.125.165.206.31.273-.708.042-2.647-.026-3.018-1.515.724-.81 2.05-1.76 4.327-2.934-1.772.603-3.372 1.406-4.71 2.51-1.574-.743-.49-2.62.278-3.364.04.197.083.32.134.358.25-.273.453-.55.775-.813 0 .155-.077.322.115.444.172-.236.406-.446.715-.625-.15.26-.025.34.055.448.236-.206.46-.415.897-.576zM9.27 6.743h.118c1.115-.012 2.497.833 2.49 1.63-.003.7-.97 1.27-2.482 1.26-1.482-.02-2.48-.715-2.476-1.396.003-.543 1.136-1.467 2.35-1.494zm-3.586.473c.22 0 .446.02.677.06.777.13-3.72 4.057-3.79 3.18-.06-2.034 1.322-3.25 3.114-3.24zm7.175.067c1.79-.01 3.175 1.206 3.112 3.24-.07.877-4.566-3.05-3.79-3.18.23-.04.457-.06.677-.06zm-.65 2.44a2.888 2.448 55.966 0 1 1.9 5.166 2.888 2.448 55.966 0 1-3.184-4.82 2.888 2.448 55.966 0 1 1.283-.346zm-5.62.134a2.448 2.888 34.034 0 1 1.283.347 2.448 2.888 34.034 0 1-3.184 4.82 2.448 2.888 34.034 0 1 1.9-5.167zm9.632 1.477c.034 0 .07 0 .11.014 2.024 1.155 1.673 3.73.58 4.61-.962.426-1.752-4.608-.69-4.626zm-13.892.067c1.062.018.272 5.05-.69 4.624-1.093-.88-1.444-3.453.58-4.61.04-.01.076-.015.11-.014zm7.202 3.476a2.73 2.517 0 0 1 2.65 2.516 2.73 2.517 0 0 1-5.46 0 2.73 2.517 0 0 1 2.81-2.516zm5.953.936c.213-.01.412.054.592.194.485.482.77 2.3-.08 3.39-1.167 1.62-2.75 1.683-3.338 1.232-.617-.582-.147-2.386.698-3.375.725-.82 1.487-1.424 2.127-1.44zM3.148 16.2c.703-.015 1.567.54 2.267 1.353.78.94 1.136 2.593.485 3.08-.617.37-2.113.218-3.177-1.31-.718-1.282-.625-2.587-.12-2.97.163-.1.348-.15.545-.154zM9.674 20.7c1.065.01 2.358.39 2.36.888.02.517-1.333 1.684-2.642 1.662-1.356.058-2.685-1.11-2.668-1.516-.02-.594 1.65-1.058 2.74-1.03h.21z"/><text style="line-height:125%" x="23.406" y="1046.165" font-size="2.594" font-family="sans-serif" letter-spacing="0" word-spacing="0" transform="translate(0 -1028.362)"><tspan x="23.406" y="1046.165"><tspan x="23.406" y="1046.165" style="-inkscape-font-specification:Arial" font-size="16.211" font-family="Arial">Pi Control</tspan></tspan></text></svg>