<?xml version="1.0" standalone="no"?>
<!DOCTYPE svg PUBLIC "-//W3C//DTD SVG 20010904//EN"
 "http://www.w3.org/TR/2001/REC-SVG-20010904/DTD/svg10.dtd">
<svg version="1.0" xmlns="http://www.w3.org/2000/svg"
 width="260.000000pt" height="260.000000pt" viewBox="0 0 260.000000 260.000000"
 preserveAspectRatio="xMidYMid meet">
<metadata>
Created by potrace 1.11, written by Peter Selinger 2001-2013
</metadata>
<g transform="translate(0.000000,260.000000) scale(0.100000,-0.100000)"
fill="#000000" stroke="none">
<path d="M1076 2574 c-471 -85 -865 -432 -1009 -889 -77 -244 -75 -537 4 -785
111 -348 390 -654 726 -795 632 -264 1355 3 1664 615 388 771 -87 1708 -940
1854 -116 20 -335 20 -445 0z m503 -617 c59 -23 132 -79 165 -125 51 -74 69
-137 69 -247 0 -127 -23 -192 -94 -270 -98 -106 -196 -134 -471 -135 l-148 0
0 -240 0 -240 -135 0 -135 0 0 641 0 641 353 -4 c300 -4 358 -7 396 -21z"/>
<path d="M1100 1580 l0 -180 63 0 c34 1 108 5 165 9 84 7 110 13 141 34 96 64
96 208 0 279 -32 24 -128 37 -266 38 l-103 0 0 -180z"/>
</g>
</svg>
